<svg xmlns="http://www.w3.org/2000/svg" width="106" height="106" fill="none" viewBox="0 0 106 106"><mask id="path-1-inside-1_41_1350" fill="#fff"><path fill-rule="evenodd" d="M53 106C82.2711 106 106 82.2711 106 53C106 23.7289 82.2711 0 53 0C23.7289 0 0 23.7289 0 53C0 82.2711 23.7289 106 53 106ZM15.8391 57.2021C15.8391 37.1887 30.7293 19.6948 50.4581 18.3632C72.0966 16.888 90.1609 34.2904 90.1609 55.8705V74.6698C90.1609 75.8186 89.2319 76.7586 88.0964 76.7586H83.9674C82.832 76.7586 81.9029 75.8186 81.9029 74.6698V56.8888C81.9029 42.0321 71.374 28.7681 56.8064 26.8751C39.1808 24.5774 24.0971 38.4811 24.0971 55.8705V74.6698C24.0971 75.8186 23.168 76.7586 22.0326 76.7586H17.9036C16.7681 76.7586 15.8391 75.8186 15.8391 74.6698V57.2021ZM28.2261 56.7452C28.2261 44.0034 37.2582 32.6324 49.7355 31.0136C64.845 29.0553 77.7739 40.9616 77.7739 55.8705V74.6698C77.7739 75.8186 76.8449 76.7586 75.7094 76.7586H71.5805C70.445 76.7586 69.516 75.8186 69.516 74.6698V56.6146C69.516 47.8808 63.2322 40.0869 54.6516 39.2383C44.8065 38.2722 36.484 46.1053 36.484 55.8705V74.6698C36.484 75.8186 35.555 76.7586 34.4195 76.7586H30.2906C29.1551 76.7586 28.2261 75.8186 28.2261 74.6698V56.7452ZM40.613 56.3666C40.613 50.309 44.6517 44.7475 50.5355 43.5856C58.4451 42.0321 65.387 48.1419 65.387 55.8705V74.6698C65.387 75.8186 64.458 76.7586 63.3225 76.7586H59.1935C58.058 76.7586 57.129 75.8186 57.129 74.6698V55.8705C57.129 53.5728 55.2838 51.6929 53 51.6929C50.7162 51.6929 48.871 53.5728 48.871 55.8705V74.6698C48.871 75.8186 47.942 76.7586 46.8065 76.7586H42.6775C41.542 76.7586 40.613 75.8186 40.613 74.6698V56.3666Z" clip-rule="evenodd"/></mask><path fill="url(#paint0_linear_41_1350)" fill-rule="evenodd" d="M53 106C82.2711 106 106 82.2711 106 53C106 23.7289 82.2711 0 53 0C23.7289 0 0 23.7289 0 53C0 82.2711 23.7289 106 53 106ZM15.8391 57.2021C15.8391 37.1887 30.7293 19.6948 50.4581 18.3632C72.0966 16.888 90.1609 34.2904 90.1609 55.8705V74.6698C90.1609 75.8186 89.2319 76.7586 88.0964 76.7586H83.9674C82.832 76.7586 81.9029 75.8186 81.9029 74.6698V56.8888C81.9029 42.0321 71.374 28.7681 56.8064 26.8751C39.1808 24.5774 24.0971 38.4811 24.0971 55.8705V74.6698C24.0971 75.8186 23.168 76.7586 22.0326 76.7586H17.9036C16.7681 76.7586 15.8391 75.8186 15.8391 74.6698V57.2021ZM28.2261 56.7452C28.2261 44.0034 37.2582 32.6324 49.7355 31.0136C64.845 29.0553 77.7739 40.9616 77.7739 55.8705V74.6698C77.7739 75.8186 76.8449 76.7586 75.7094 76.7586H71.5805C70.445 76.7586 69.516 75.8186 69.516 74.6698V56.6146C69.516 47.8808 63.2322 40.0869 54.6516 39.2383C44.8065 38.2722 36.484 46.1053 36.484 55.8705V74.6698C36.484 75.8186 35.555 76.7586 34.4195 76.7586H30.2906C29.1551 76.7586 28.2261 75.8186 28.2261 74.6698V56.7452ZM40.613 56.3666C40.613 50.309 44.6517 44.7475 50.5355 43.5856C58.4451 42.0321 65.387 48.1419 65.387 55.8705V74.6698C65.387 75.8186 64.458 76.7586 63.3225 76.7586H59.1935C58.058 76.7586 57.129 75.8186 57.129 74.6698V55.8705C57.129 53.5728 55.2838 51.6929 53 51.6929C50.7162 51.6929 48.871 53.5728 48.871 55.8705V74.6698C48.871 75.8186 47.942 76.7586 46.8065 76.7586H42.6775C41.542 76.7586 40.613 75.8186 40.613 74.6698V56.3666Z" clip-rule="evenodd"/><path fill="url(#paint1_linear_41_1350)" d="M50.4581 18.3632L50.5254 19.361L50.5261 19.3609L50.4581 18.3632ZM56.8064 26.8751L56.6771 27.8667L56.6776 27.8668L56.8064 26.8751ZM49.7355 31.0136L49.607 30.0219L49.6069 30.0219L49.7355 31.0136ZM54.6516 39.2383L54.75 38.2432L54.7493 38.2431L54.6516 39.2383ZM50.5355 43.5856L50.3428 42.6044L50.3418 42.6046L50.5355 43.5856ZM105 53C105 81.7188 81.7188 105 53 105V107C82.8234 107 107 82.8234 107 53H105ZM53 1C81.7188 1 105 24.2812 105 53H107C107 23.1766 82.8234 -1 53 -1V1ZM1 53C1 24.2812 24.2812 1 53 1V-1C23.1766 -1 -1 23.1766 -1 53H1ZM53 105C24.2812 105 1 81.7188 1 53H-1C-1 82.8234 23.1766 107 53 107V105ZM50.3907 17.3655C30.082 18.7363 14.8391 36.7194 14.8391 57.2021H16.8391C16.8391 37.6579 31.3765 20.6534 50.5254 19.361L50.3907 17.3655ZM91.1609 55.8705C91.1609 33.7284 72.6231 15.8498 50.3901 17.3655L50.5261 19.3609C71.57 17.9262 89.1609 34.8525 89.1609 55.8705H91.1609ZM91.1609 74.6698V55.8705H89.1609V74.6698H91.1609ZM88.0964 77.7586C89.7952 77.7586 91.1609 76.3599 91.1609 74.6698H89.1609C89.1609 75.2774 88.6686 75.7586 88.0964 75.7586V77.7586ZM83.9674 77.7586H88.0964V75.7586H83.9674V77.7586ZM80.9029 74.6698C80.9029 76.3599 82.2687 77.7586 83.9674 77.7586V75.7586C83.3953 75.7586 82.9029 75.2774 82.9029 74.6698H80.9029ZM80.9029 56.8888V74.6698H82.9029V56.8888H80.9029ZM56.6776 27.8668C70.6915 29.6878 80.9029 42.4766 80.9029 56.8888H82.9029C82.9029 41.5876 72.0565 27.8484 56.9353 25.8835L56.6776 27.8668ZM25.0971 55.8705C25.0971 39.0626 39.6718 25.6499 56.6771 27.8667L56.9357 25.8835C38.6898 23.505 23.0971 37.8996 23.0971 55.8705H25.0971ZM25.0971 74.6698V55.8705H23.0971V74.6698H25.0971ZM22.0326 77.7586C23.7313 77.7586 25.0971 76.3599 25.0971 74.6698H23.0971C23.0971 75.2774 22.6047 75.7586 22.0326 75.7586V77.7586ZM17.9036 77.7586H22.0326V75.7586H17.9036V77.7586ZM14.8391 74.6698C14.8391 76.3599 16.2048 77.7586 17.9036 77.7586V75.7586C17.3314 75.7586 16.8391 75.2774 16.8391 74.6698H14.8391ZM14.8391 57.2021V74.6698H16.8391V57.2021H14.8391ZM49.6069 30.0219C36.5756 31.7126 27.2261 43.559 27.2261 56.7452H29.2261C29.2261 44.4478 37.9408 33.5522 49.8642 32.0053L49.6069 30.0219ZM78.7739 55.8705C78.7739 40.3794 65.3356 27.9834 49.607 30.0219L49.864 32.0053C64.3545 30.1273 76.7739 41.5438 76.7739 55.8705H78.7739ZM78.7739 74.6698V55.8705H76.7739V74.6698H78.7739ZM75.7094 77.7586C77.4082 77.7586 78.7739 76.3599 78.7739 74.6698H76.7739C76.7739 75.2774 76.2816 75.7586 75.7094 75.7586V77.7586ZM71.5805 77.7586H75.7094V75.7586H71.5805V77.7586ZM68.516 74.6698C68.516 76.3599 69.8817 77.7586 71.5805 77.7586V75.7586C71.0083 75.7586 70.516 75.2774 70.516 74.6698H68.516ZM68.516 56.6146V74.6698H70.516V56.6146H68.516ZM54.5532 40.2334C62.5566 41.025 68.516 48.3264 68.516 56.6146H70.516C70.516 47.4351 63.9077 39.1488 54.75 38.2432L54.5532 40.2334ZM37.484 55.8705C37.484 46.6778 45.315 39.3269 54.5539 40.2335L54.7493 38.2431C44.2981 37.2175 35.484 45.5327 35.484 55.8705H37.484ZM37.484 74.6698V55.8705H35.484V74.6698H37.484ZM34.4195 77.7586C36.1183 77.7586 37.484 76.3599 37.484 74.6698H35.484C35.484 75.2774 34.9917 75.7586 34.4195 75.7586V77.7586ZM30.2906 77.7586H34.4195V75.7586H30.2906V77.7586ZM27.2261 74.6698C27.2261 76.3599 28.5918 77.7586 30.2906 77.7586V75.7586C29.7184 75.7586 29.2261 75.2774 29.2261 74.6698H27.2261ZM27.2261 56.7452V74.6698H29.2261V56.7452H27.2261ZM50.3418 42.6046C43.9277 43.8712 39.613 49.8973 39.613 56.3666H41.613C41.613 50.7207 45.3757 45.6239 50.7292 44.5667L50.3418 42.6046ZM66.387 55.8705C66.387 47.5388 58.896 40.9244 50.3428 42.6044L50.7282 44.5669C57.9942 43.1398 64.387 48.7449 64.387 55.8705H66.387ZM66.387 74.6698V55.8705H64.387V74.6698H66.387ZM63.3225 77.7586C65.0212 77.7586 66.387 76.3599 66.387 74.6698H64.387C64.387 75.2774 63.8947 75.7586 63.3225 75.7586V77.7586ZM59.1935 77.7586H63.3225V75.7586H59.1935V77.7586ZM56.129 74.6698C56.129 76.3599 57.4947 77.7586 59.1935 77.7586V75.7586C58.6213 75.7586 58.129 75.2774 58.129 74.6698H56.129ZM56.129 55.8705V74.6698H58.129V55.8705H56.129ZM53 52.6929C54.7185 52.6929 56.129 54.112 56.129 55.8705H58.129C58.129 53.0336 55.8492 50.6929 53 50.6929V52.6929ZM49.871 55.8705C49.871 54.112 51.2815 52.6929 53 52.6929V50.6929C50.1508 50.6929 47.871 53.0336 47.871 55.8705H49.871ZM49.871 74.6698V55.8705H47.871V74.6698H49.871ZM46.8065 77.7586C48.5053 77.7586 49.871 76.3599 49.871 74.6698H47.871C47.871 75.2774 47.3787 75.7586 46.8065 75.7586V77.7586ZM42.6775 77.7586H46.8065V75.7586H42.6775V77.7586ZM39.613 74.6698C39.613 76.3599 40.9788 77.7586 42.6775 77.7586V75.7586C42.1053 75.7586 41.613 75.2774 41.613 74.6698H39.613ZM39.613 56.3666V74.6698H41.613V56.3666H39.613Z" mask="url(#path-1-inside-1_41_1350)"/><defs><linearGradient id="paint0_linear_41_1350" x1="53" x2="53" y1="0" y2="106" gradientUnits="userSpaceOnUse"><stop stop-color="#002E88"/><stop offset="1" stop-color="#00FF47"/></linearGradient><linearGradient id="paint1_linear_41_1350" x1="53" x2="53" y1="0" y2="106" gradientUnits="userSpaceOnUse"><stop stop-color="#002E88"/><stop offset="1" stop-color="#00FF47"/></linearGradient></defs></svg>